# xmcd
#
# Track frame offsets: 
#        150
#        16590
#        28264
#        44462
#        62546
#        80151
#        100405
#        121561
#        136824
#        155230
#        173738
#
# Disc length: 2567 seconds
#
# Revision: 0
# Processed by: cddbd v1.5.2PL0 Copyright (c) Steve Scherf et al.
# Submitted via: ExactAudioCopy v1.0b3
#
DISCID=880a050b
DTITLE=Ирина Богушевская - Избранное (Салон AV)
DYEAR=2005
DGENRE=Blues
TTITLE0=Август
TTITLE1=Такси
TTITLE2=Рио-Рита
TTITLE3=Танго "Прощай"
TTITLE4=Твидовый Сезон
TTITLE5=Эти Большие Волны
TTITLE6=Легкие Люди
TTITLE7=Луч
TTITLE8=А У Нас В Раю
TTITLE9=Нежные Вещи
TTITLE10=Ангел Моей Печали
EXTD=YEAR: 2005 ID3G: 0
EXTT0=
EXTT1=
EXTT2=
EXTT3=
EXTT4=
EXTT5=
EXTT6=
EXTT7=
EXTT8=
EXTT9=
EXTT10=
PLAYORDER=
